<svg xmlns="http://www.w3.org/2000/svg" width="499" height="272"><path d="M64.86 247.55c-5.53-3.14-5.28-10.37.61-18.11 5.91-7.74 27.19-23.1 49.77-35.94l10.56-6 .66-6.08c.66-6.05.27-9.54-1.61-14.55-.92-2.43-1.27-2.56-4.67-1.77-6.35 1.47-16.84 1.1-18.61-.67-2.04-2.05-1.98-2.75.45-4.94 3.26-2.96 11.89-3.2 17.49-.49 4.6 2.23 4.65 2.23 8.78.37 16.14-7.26 37.75-26.82 50.68-45.87 10.15-14.95 15.04-27.48 15.01-38.43-.04-10.53-4.48-17.65-12.22-19.59l-2.62-.66 1.43 4.75c1.91 6.35 1.82 19.75-.18 26.49-4.02 13.52-15.58 31.28-27.84 42.74-23.52 22-50.83 28.9-54.63 13.79-.78-3.1-1.78-4.48-3.92-5.43-4.53-2.01-6.52-8.33-4.98-15.8 2.33-11.23 9.1-22.36 21.44-35.22 18.83-19.62 43.02-33.09 59.48-33.13l6.43-.01-2.84-2.97c-4.53-4.73-11.15-6.41-22.45-5.71-12.38.77-19.29 2.67-31.58 8.69-53.36 26.12-75.07 93.53-41.61 129.19 3.25 3.47 8.19 7.65 10.99 9.3 2.79 1.65 5.09 3.37 5.1 3.81.05 1.94-9.05-4.37-15.59-10.81-17.9-17.61-22.69-43.65-13.26-72 8.8-26.46 29.07-49.08 55.16-61.56 11.56-5.52 21.88-7.94 33.9-7.94 11.25 0 15.41 1.29 20.81 6.43 1.93 1.84 5.3 3.89 7.5 4.56 14.11 4.31 21.01 16.27 18.54 32.17-2.43 15.7-11.6 31.52-27.47 47.43-13.4 13.43-30.37 24.58-43.32 28.45-2.34.7-4.25 1.37-4.25 1.49 0 .12.85 2.19 1.89 4.59 1.04 2.41 2.2 6.97 2.57 10.13.38 3.16.86 5.75 1.07 5.75.73 0 10.6-6.03 18.27-11.16 11.65-7.78 17.32-12.72 33.7-29.35 16-16.23 21.57-20.23 32.06-22.97 7.77-2.03 11.44-1.29 11.44 2.31-.01 3.58-2.58 7.58-9.88 15.38-6.46 6.91-8.06 10.91-4.66 11.61 3.62.75 8.27-2.96 19.98-15.92l11.64-12.9h4.71l4.71.01-6.5 5.67c-13.62 11.87-29.39 30.08-28.78 33.22.16.83 1.41 1.85 2.79 2.25 2.31.69 2.28.73-.51.55-2.59-.17-3.04-.64-3.31-3.38-.17-1.8.59-4.93 1.77-7.25 2.19-4.28 1.81-4.97-1.4-2.54-2.5 1.89-6.97 1.89-8.55-.01-1.05-1.28-1.95-.87-6.37 2.88-11.71 9.95-19.32 12.93-21.7 8.49-1.17-2.18-.88-9.04.52-12.2.44-.99-2.7 1.61-6.98 5.8-9.44 9.23-21.15 18.12-34.28 26.04l-9.83 5.93-1.08 5.52c-5.37 27.56-32.05 54.44-56.15 56.57-3.95.35-6.43.05-8.28-1zm19.31-4.02c12.66-6.2 25.17-19.21 33.18-34.51 4.64-8.86 8.1-17.91 7.19-18.81-.68-.69-27.69 15.63-37.67 22.77-8.95 6.39-16.93 13.76-21.04 19.42-3.29 4.53-3.74 9.93-1.08 12.88 2.49 2.77 11.93 1.92 19.42-1.75zm32.39-79.65c2.44-.61 4.44-1.47 4.44-1.89 0-1.08-7.56-3.99-10.37-3.99-4.16 0-8.63 2.08-8.63 4.01 0 1 .56 2.05 1.25 2.33 2.25.91 8.78.68 13.31-.46zm76.28-5.27c8.98-6.04 14.94-11.76 15.58-14.95.97-4.86 5.22-9.66 8.54-9.66 2.21 0 3.58-.96 5.95-4.2 1.7-2.31 3.09-5.29 3.09-6.63 0-2.25-.29-2.39-3.87-1.91-5.41.72-14.17 6.6-24.02 16.13-9.05 8.76-16.11 18.51-16.11 22.27 0 3.53 4.7 3.08 10.84-1.05zm-67.3-13.48c24.66-11.54 50.69-42.87 54.6-65.71 1.25-7.31.43-16.36-2.08-22.81l-1.12-2.89-7.22.55c-16.84 1.3-36.4 11.74-54.43 29.05-15.32 14.71-24.07 29.1-25.04 41.18-.49 6.1-.38 6.53 2.54 9.44 3.93 3.93 4.84 3.85 5.65-.49 1.69-9 13.72-27.3 26.27-39.97 17.15-17.33 32.44-24.42 38.84-18.03 6.35 6.36-.3 20.31-17.69 37.12-14.65 14.16-29.11 23.2-40.79 25.5-5.16 1.01-6.07 1.51-6.04 3.31.12 8.15 13.16 10 26.51 3.75zm-11.33-12.4c11.38-5.87 18.55-11.32 30.42-23.15 14.43-14.37 20.89-25.23 18.84-31.68-1.8-5.65-11.83-3.94-23.02 3.93-14.44 10.15-34.33 34.22-39.34 47.61-1.16 3.1-2.11 6.07-2.11 6.6 0 2.34 7.36.73 15.21-3.31zm143.9 77.78c-2.64-2.47-5.62-6.3-6.61-8.52-2.32-5.13-3.82-4.75-12.24 3.1-6.54 6.1-12.16 8.65-16.6 7.54-4.03-1.01-5.66-3.35-5.66-8.13 0-3.55.61-5 3.29-7.84 4.97-5.28 13.09-6.16 14.55-1.59.31.99-.18.87-1.63-.41-4.74-4.21-14.21 2.63-14.21 10.25 0 9.28 9.46 8.42 19.35-1.74 2.97-3.05 3.69-4.45 3.17-6.11-.93-2.92 1.89-7.06 4.79-7.06 1.79 0 2.94-1.37 5.52-6.62 1.8-3.64 3.06-6.82 2.82-7.07-.81-.8-8.07 3.41-10.65 6.17-2.45 2.62-2.46 2.71-.56 4.1 1.89 1.39 1.89 1.42-.25 1.42-3.03 0-2.87-3.41.31-6.59 3.38-3.39 12.67-7.64 13.93-6.38.63.63-.52 3.83-3.23 9.05-3.95 7.6-5.03 10.92-3.57 10.92.35 0 6.09-4.13 12.75-9.17 13.85-10.48 20.83-14.1 26.27-13.64 5.39.45 5.13 2.27-.37 2.53-6.28.29-14.26 4.4-27.54 14.18l-10.77 7.93 4.29 6.27c5.81 8.49 15.74 13.69 15.74 8.23 0-.79.45-1.17 1-.83.67.41.66 1.27-.03 2.56-.76 1.42-2.11 1.94-5.05 1.94-3.37 0-4.77-.72-8.81-4.49zm-11.63-18.36c-.75-.75-2.48 1.05-2.48 2.6 0 1.37.23 1.31 1.42-.31.78-1.06 1.26-2.1 1.06-2.29zm16.88 15.35c-1.01-2.63.47-6 4.36-9.91 5.49-5.53 9.2-6.73 12.66-4.1 1.82 1.37 1.77 1.61-1.35 6.47-1.91 2.98-2.99 5.7-2.63 6.65.53 1.38 1.16 1.21 4.36-1.18 3.07-2.3 3.39-2.39 1.75-.52-3.66 4.19-8.51 5.04-8.51 1.48 0-1.97-1.39-1.73-3.5.61-2.13 2.35-6.32 2.64-7.14.5zm5.55-.45c2.36-1.26 10.45-12.03 9.64-12.83-1.08-1.08-7.62 3.04-10.65 6.72-4.3 5.21-3.73 8.65 1.01 6.11zm14.56-.3c.39-1.24.69-3.03.68-3.99-.01-.95.78-2.3 1.75-3 .98-.69 3.03-3.28 4.56-5.76 4.4-7.12 9.54-12.03 9.54-9.12 0 .49-2.24 3.75-4.98 7.25s-4.99 6.72-5 7.15c-.01.42 2.34-.81 5.22-2.75 7.85-5.29 10.17-4.38 5.26 2.06-3.45 4.52-4.88 8.41-3.08 8.41 3.69 0 13.5-10.86 10.66-11.81-1.89-.63-1.16-2.19 1.03-2.19 1.15 0 2.99-1.13 4.08-2.51 2.18-2.78 4.23-2.4 3.28.59-.54 1.7-.05 1.93 4.21 2.04l4.82.12-6 .96c-3.29.53-6.59 1.46-7.32 2.06-1.73 1.44-5.18 8.23-5.18 10.2 0 2.82 5.52 1.79 10.42-1.95 2.52-1.92 4.58-3.27 4.58-3s1.58-1.25 3.51-3.39c4.64-5.14 8.73-6.87 12.04-5.09 3.08 1.65 3.07 2.6-.11 7.28-1.41 2.07-2.43 4.77-2.25 5.98.29 2.05.66 1.89 5.07-2.18 2.62-2.41 6.3-6.91 8.17-10 3.92-6.45 7.96-10.6 9.44-9.69.59.36-1.72 4.5-5.43 9.73-8.85 12.52-8.53 18.44.56 10.23 2.2-1.99 4-3.14 4-2.57 0 1.73-7.3 7.19-9.61 7.19-2.81 0-4.72-2.39-3.92-4.9.46-1.46-.3-1.07-2.82 1.45-3.9 3.9-6.09 4.33-7.83 1.53-1.19-1.9-1.24-1.9-3.65 0-4.4 3.46-9.11 1.45-7.61-3.26.65-2.05.36-1.96-2.94.94-3.92 3.44-7 4.61-10.77 4.07-1.96-.27-2.33-.87-2.2-3.61l.15-3.27-3.97 3.58c-4.16 3.76-5.49 3.97-7.26 1.14-.82-1.32-.55-2.68 1.19-5.86 1.24-2.27 2.04-4.34 1.78-4.6-.26-.26-3.45 2.51-7.1 6.16-3.64 3.65-6.86 6.63-7.15 6.63-.29 0-.21-1.01.18-2.25zm46.18-2c1.67-1.79 4.29-4.94 5.81-7 2.71-3.65 2.72-3.75.62-3.75-3.08 0-12.08 8.67-12.08 11.64 0 3.27 2.06 2.95 5.65-.89zm-89.9-42.34c-1.42-1.41-.74-6.08 1.52-10.55l2.27-4.49-7.02 5.91c-3.86 3.25-8.37 6.55-10.02 7.33-1.7.8-2.18.87-1.1.15 7.79-5.18 18.34-14.87 28.39-26.08l11.83-13.18 5.44-.26 5.44-.25-3 2.14c-4.55 3.24-26.16 25.77-29.53 30.79-8.18 12.19 1.84 10.38 16.39-2.95 3.22-2.95 23.01-24.96 43.99-48.92C325.32 78.1 346 54.56 350.3 49.75l7.82-8.75h9.98l-5.8 4.85c-7.48 6.25-16.1 15.37-41.28 43.65-11.27 12.65-25.86 28.85-32.43 36-16.75 18.21-18.02 19.78-10.26 12.68 18.62-17.06 27.45-21.5 31.24-15.72 1.37 2.1 1.43 3.02.37 6.23-1.19 3.59-3.25 5.78-21.69 22.93-6.37 5.93-7.4 9.73-2.75 10.16 4.72.44 14.45-6.67 28.5-20.84 11.03-11.12 13.5-13.08 21-16.7 13.85-6.7 22.08-6.46 20.34.58-.66 2.66-.64 2.66 2.09-.57 2.45-2.9 3.31-3.25 7.91-3.24l5.16.01-3.5 2.63c-4.26 3.19-22.68 22.01-28.08 28.69-4.53 5.6-5.21 9.66-1.62 9.66 5.47 0 16.19-9.29 36.03-31.25l8.81-9.75 5.18.03 5.18.03-3 2.13c-4.52 3.2-25.74 24.69-29.34 29.71-1.74 2.42-3.16 5.46-3.16 6.75 0 5.21 8.21 1.52 19.43-8.73 6.43-5.88 31.08-32.88 38.49-42.16 3.46-4.34 5.22-5.75 7.19-5.75 2.34-.01 1.72.87-6 8.49-7.7 7.6-8.29 8.44-5.61 7.93 6.37-1.22 10.77 2.99 8.99 8.61-1.08 3.39-7.13 9.58-17.22 17.61-5.07 4.04-9.95 8.45-10.83 9.8-2.25 3.44-1.48 5.91 2.07 6.67l2.99.64-3.18.12c-3.04.11-6.32-1.95-6.32-3.98 0-3.5 4.5-9.64 14.98-20.42 8.99-9.26 12.02-13.01 12.02-14.93 0-2.27-.4-2.55-3.66-2.55-4 0-2.49-1.34-25.43 22.72-11.95 12.55-21.63 19.54-26.39 19.08-2.43-.24-3.08-.82-3.33-2.95-.17-1.45.37-4.27 1.2-6.25.83-1.98 1.26-3.6.96-3.6-.3 0-2.64 1.85-5.2 4.1-6.61 5.83-12.56 9.1-15.86 8.72-3.97-.45-4.24-5-.73-11.94l2.67-5.28-5.36 4.85c-7.55 6.8-14.95 11.53-19.12 12.2-2.99.49-3.75.22-4.77-1.68-1.21-2.27-.91-8.67.59-12.47.51-1.29-.87-.49-3.9 2.27-6.77 6.18-16.54 12.23-19.75 12.23-3.48 0-5.92-2.36-5.92-5.73 0-4.54 4.53-10.56 15.92-21.15 8.19-7.61 11.08-10.93 11.08-12.71 0-1.86-.53-2.41-2.34-2.41-4.8 0-15.16 8.14-31.34 24.62l-16.18 16.49-4.82-.06c-2.65-.02-6.4.21-8.32.53-1.93.32-3.84.24-4.25-.17zm81.21-4.16c6.78-3.96 24.53-20.68 29.88-28.15 8.49-11.84-.79-12.15-15.91-.54-7.93 6.09-20.34 19.59-22.93 24.94-4.03 8.33-1.03 9.59 8.96 3.75zm82.37-.81c3.74-2.52 10.25-7.8 14.47-11.75 4.22-3.96 6.33-5.62 4.68-3.69-6.25 7.33-22.02 20-24.89 20-.59 0 1.99-2.05 5.74-4.56zM403 97.63c0-2.33 8.71-9.63 11.48-9.63 1.38 0 2.52.25 2.52.57 0 1.72-2.6 4.85-6.2 7.46-4.36 3.16-7.8 3.86-7.8 1.6z" fill="#bb0000"/></svg>