<svg xmlns="http://www.w3.org/2000/svg" width="756" height="397" viewBox="0 0 756 397">
<g>
<path d="M 680.43 307.43 C678.07,309.78 670.97,309.27 659.00,305.89 C637.84,299.91 631.78,299.00 606.00,297.94 C580.82,296.90 524.99,297.25 428.50,299.06 C378.88,299.99 350.58,300.80 255.00,304.02 C205.11,305.70 121.43,306.82 103.00,306.05 C84.02,305.26 77.81,303.68 77.21,299.47 C76.77,296.40 81.12,289.01 90.95,276.14 C104.63,258.23 118.41,243.77 135.26,229.66 C138.98,226.55 141.82,224.00 141.56,224.00 C141.31,224.00 136.02,224.66 129.80,225.47 C123.59,226.27 107.47,228.09 94.00,229.51 C80.53,230.93 66.57,232.51 63.00,233.02 C54.31,234.28 42.33,234.25 39.93,232.96 C37.50,231.66 37.45,228.81 39.83,226.65 C41.21,225.40 43.62,225.00 49.70,225.00 C60.53,225.00 99.03,221.64 128.79,218.10 C151.13,215.44 153.39,215.00 156.79,212.55 C166.18,205.80 185.04,192.66 197.65,184.09 C219.26,169.41 227.68,163.30 239.00,154.07 C252.11,143.40 273.32,122.86 281.28,113.14 C287.10,106.03 287.21,105.79 284.41,106.35 C282.81,106.67 278.58,107.43 275.00,108.04 C271.42,108.65 254.10,112.03 236.50,115.56 C190.05,124.87 177.28,126.93 138.00,131.46 C113.35,134.30 71.52,138.59 58.97,139.57 L 50.45 140.24 L 44.97 147.14 C41.96,150.94 34.97,161.51 29.44,170.63 C23.91,179.75 18.59,187.65 17.62,188.19 C14.78,189.78 11.11,188.31 10.35,185.27 C9.36,181.32 11.64,175.94 20.59,161.03 C28.75,147.43 39.16,134.92 45.64,130.91 C48.78,128.97 49.66,128.84 52.47,129.85 C55.09,130.80 61.77,130.44 87.60,127.96 C105.15,126.27 126.25,124.25 134.50,123.47 C148.10,122.19 161.64,120.72 171.00,119.52 C180.70,118.28 218.30,112.73 225.63,111.45 L 242.48 108.53 C253.71,106.57 260.97,104.85 275.96,100.56 C290.06,96.53 295.68,96.11 299.07,98.86 C301.21,100.59 301.27,100.94 300.01,104.11 C298.33,108.31 259.37,147.40 246.00,158.28 C240.77,162.53 225.48,173.57 212.00,182.81 C175.49,207.84 169.02,212.36 169.29,212.62 C169.62,212.95 183.49,210.98 219.50,205.51 C236.00,203.00 256.86,199.83 265.85,198.47 C274.84,197.10 292.17,194.40 304.35,192.46 C328.16,188.67 422.58,174.95 455.73,170.47 L 475.95 167.73 L 472.02 165.78 C469.74,164.65 465.76,160.95 462.51,156.93 C459.44,153.13 455.91,149.76 454.66,149.45 C453.40,149.14 450.38,149.57 447.94,150.42 C440.38,153.06 436.24,152.54 432.41,148.47 L 429.08 144.94 L 419.29 150.61 C404.73,159.04 394.01,164.00 390.34,164.00 C386.46,164.00 380.89,159.57 378.99,154.97 L 377.73 151.94 L 376.21 154.22 C373.33,158.56 368.49,163.18 364.88,165.04 C360.22,167.44 344.35,168.80 341.12,167.07 C338.02,165.40 335.01,160.11 335.00,156.31 L 335.00 153.12 L 316.57 161.88 L 316.81 165.69 C317.39,174.61 308.42,181.02 294.27,181.79 C279.68,182.60 271.56,178.78 266.58,168.78 C261.10,157.78 265.05,147.01 275.13,145.50 C278.85,144.95 279.81,144.34 280.69,142.02 C281.27,140.48 282.97,138.41 284.46,137.43 C287.13,135.69 287.28,135.71 293.69,138.87 C297.28,140.64 302.66,144.40 305.66,147.24 L 311.11 152.40 L 323.81 146.00 C335.37,140.18 337.27,138.81 345.20,130.66 L 353.90 121.71 L 356.45 123.38 C360.30,125.90 359.76,129.53 354.50,136.52 C352.03,139.81 348.54,145.30 346.76,148.72 C343.73,154.51 343.62,155.05 345.17,156.60 C346.52,157.95 347.89,158.12 352.66,157.52 C357.84,156.88 359.01,156.27 363.13,152.15 C366.84,148.44 368.20,146.08 369.87,140.46 C372.19,132.65 374.90,129.00 378.38,129.00 C382.05,129.00 383.73,131.92 384.99,140.50 C386.49,150.69 388.11,153.43 392.17,152.62 C393.81,152.29 399.50,149.53 404.82,146.49 C410.15,143.45 417.33,139.51 420.80,137.73 C426.95,134.57 427.08,134.42 426.49,131.17 C421.32,102.95 422.03,72.70 428.14,60.72 C430.11,56.87 436.10,53.07 440.30,53.02 C449.44,52.91 459.15,70.77 462.01,92.96 C464.60,113.12 460.65,122.73 445.22,133.74 C439.18,138.05 438.88,138.44 440.63,139.76 C442.46,141.13 445.70,141.06 455.00,139.45 C459.94,138.59 464.38,141.89 470.26,150.79 C472.88,154.75 475.71,158.00 476.56,158.00 C481.22,158.00 493.31,149.05 499.48,141.03 C502.03,137.71 504.72,135.00 505.45,135.00 C507.02,135.00 508.00,132.83 508.00,129.38 C508.00,126.24 512.12,118.14 515.15,115.32 C518.76,111.96 522.62,110.91 533.57,110.29 C542.57,109.78 543.75,109.49 544.57,107.61 C545.26,106.05 546.40,105.50 548.96,105.50 C551.92,105.50 552.94,106.19 556.09,110.36 C558.11,113.03 561.90,119.28 564.52,124.25 L 569.28 133.28 L 575.94 120.19 C579.60,112.99 583.43,106.18 584.45,105.05 C587.23,101.99 592.48,102.32 595.95,105.79 C598.55,108.39 599.45,110.74 603.01,124.25 C604.38,129.44 605.48,130.22 606.57,126.77 C607.59,123.57 618.44,112.53 625.63,107.39 C631.12,103.45 632.33,103.00 637.38,103.00 C646.22,103.00 648.28,106.32 649.51,122.50 C650.09,130.05 650.21,133.36 651.38,133.79 C652.25,134.10 653.69,132.82 656.32,130.50 C656.66,130.20 657.02,129.89 657.39,129.56 C663.76,123.97 667.32,122.72 669.80,125.20 C672.03,127.43 671.02,131.13 666.60,136.83 C660.73,144.41 656.87,147.94 653.46,148.85 C648.52,150.17 649.62,151.68 656.01,152.34 C663.60,153.14 666.00,154.38 666.00,157.50 C666.00,162.13 663.62,162.50 636.00,162.18 C583.24,161.56 517.94,168.15 390.00,186.99 C374.88,189.22 354.85,192.14 345.50,193.47 C327.24,196.08 278.12,203.72 258.50,207.00 C251.90,208.11 240.46,209.91 233.08,211.01 C225.70,212.11 219.62,213.12 219.58,213.25 C219.54,213.39 219.73,218.57 220.00,224.77 L 220.50 236.04 L 226.32 231.68 C229.53,229.28 235.00,225.79 238.48,223.93 C243.87,221.06 245.24,220.70 247.66,221.55 C250.01,222.38 250.50,223.12 250.50,225.87 C250.50,229.04 249.96,229.53 239.43,235.91 L 228.36 242.63 L 232.48 250.06 C234.75,254.15 238.24,260.06 240.25,263.19 C247.79,274.95 249.69,280.91 246.80,283.80 C245.31,285.29 241.52,285.35 238.88,283.94 C236.35,282.58 230.93,274.23 224.35,261.53 L 219.19 251.57 L 218.65 256.03 C216.76,271.88 216.36,283.50 217.66,284.80 C219.65,286.79 219.29,289.38 216.69,291.83 C213.78,294.56 211.83,294.58 209.40,291.89 C207.63,289.92 207.51,288.02 207.58,264.64 C207.65,242.47 209.05,219.65 210.57,215.67 C211.01,214.53 209.61,214.53 201.80,215.69 C196.68,216.46 184.42,218.19 174.54,219.56 L 156.58 222.03 L 150.54 226.73 C132.50,240.76 112.63,259.77 104.15,271.13 C101.84,274.22 98.03,280.31 95.69,284.65 L 91.43 292.55 L 142.46 294.81 C204.15,297.54 236.01,297.58 305.50,295.03 C385.48,292.08 461.22,290.68 545.50,290.59 C619.74,290.50 621.89,290.55 638.50,292.82 C647.85,294.10 658.60,295.80 662.40,296.59 C666.19,297.39 669.40,297.91 669.52,297.77 C669.64,297.62 676.33,277.93 684.40,254.00 C692.47,230.08 699.69,209.88 700.45,209.12 C702.31,207.26 706.69,208.44 707.51,211.02 C708.36,213.72 703.58,228.90 693.79,254.50 C679.47,291.94 677.18,300.24 680.40,302.92 C682.40,304.58 682.41,305.45 680.43,307.43 ZM 497.97 282.04 C491.78,285.23 479.35,285.78 473.06,283.15 C467.10,280.65 461.40,275.71 458.96,270.92 L 456.95 266.99 L 453.83 270.54 C449.36,275.63 445.49,277.35 438.50,277.34 C431.46,277.34 425.96,274.90 420.92,269.56 L 417.60 266.04 L 415.30 271.69 C414.03,274.80 412.25,278.17 411.34,279.17 C408.96,281.81 403.19,281.49 399.56,278.53 C396.75,276.23 396.48,276.19 393.06,277.66 C389.06,279.39 378.50,279.52 374.22,277.90 C368.32,275.66 364.85,270.53 362.54,260.62 L 361.40 255.74 L 358.16 262.33 C354.84,269.08 346.20,277.96 339.39,281.63 C336.63,283.12 335.81,283.16 332.98,281.99 C331.19,281.25 328.51,279.62 327.02,278.36 L 324.30 276.07 L 322.99 278.52 C321.32,281.64 318.61,282.49 315.06,281.02 C311.90,279.71 310.00,276.31 310.00,271.95 C310.00,270.33 309.66,269.01 309.25,269.03 C308.84,269.04 306.05,270.61 303.05,272.53 C295.20,277.52 290.04,277.41 285.03,272.15 L 281.36 268.30 L 278.65 270.46 C274.90,273.45 266.83,276.20 262.93,275.82 C257.88,275.32 255.61,271.43 255.16,262.47 C254.83,255.87 255.08,254.54 257.42,250.54 C260.69,244.96 262.44,244.00 269.27,244.00 C279.73,244.00 292.84,252.89 291.49,259.07 C291.00,261.26 291.33,262.10 292.99,262.99 C294.69,263.91 295.95,263.72 299.42,262.04 C306.88,258.43 307.08,257.92 305.42,247.00 C303.21,232.43 302.56,217.21 303.95,212.14 C305.56,206.23 308.94,203.00 313.50,203.00 C318.90,203.00 325.98,210.43 328.87,219.12 C333.39,232.69 332.65,245.04 326.84,253.06 C325.54,254.85 324.71,255.78 324.62,256.78 C324.49,258.13 325.70,259.62 328.92,263.55 C329.35,264.07 329.82,264.64 330.32,265.25 C332.44,267.86 334.82,270.00 335.59,270.00 C337.73,270.00 344.82,263.18 347.46,258.58 C350.56,253.17 351.78,246.86 353.00,229.74 C354.58,207.59 355.24,204.69 358.96,203.51 C363.08,202.20 367.10,206.66 368.49,214.09 L 369.15 217.60 L 381.82 218.89 C395.95,220.33 399.35,221.45 399.83,224.81 C400.53,229.79 398.72,230.34 384.11,229.64 L 370.70 229.00 L 371.39 238.68 C371.76,244.00 372.57,251.74 373.18,255.88 C374.57,265.20 376.47,267.42 383.79,268.29 C388.39,268.83 389.28,268.63 391.38,266.53 C392.68,265.23 394.06,262.44 394.45,260.33 C395.60,254.09 398.42,248.71 402.37,245.25 C405.58,242.43 406.80,242.00 411.53,242.00 C416.72,242.00 417.07,242.17 418.74,245.39 C423.50,254.56 429.12,262.68 431.81,264.25 C433.46,265.21 436.62,266.00 438.83,266.00 C442.41,266.00 443.33,265.45 447.34,260.86 L 451.84 255.72 L 451.29 241.11 C450.97,232.54 451.23,221.98 451.93,215.58 C453.51,201.12 456.27,195.60 462.52,194.43 C469.69,193.08 475.74,200.46 478.57,213.99 C481.11,226.21 478.05,237.99 468.93,250.99 C465.08,256.48 464.86,257.15 465.89,260.12 C469.92,271.67 482.50,277.15 493.50,272.13 C502.85,267.87 520.11,255.51 533.50,243.50 C549.16,229.44 553.78,226.92 557.34,230.48 C560.09,233.23 559.26,235.84 553.83,241.59 C545.64,250.24 511.05,275.29 497.97,282.04 ZM 529.50 156.60 C522.22,161.64 521.81,162.09 525.00,161.58 C530.67,160.68 558.25,158.16 575.50,156.97 C584.30,156.36 599.85,155.22 610.05,154.43 C620.25,153.64 631.05,153.00 634.05,153.00 L 639.50 152.99 L 639.78 134.37 C639.93,124.13 639.79,114.91 639.46,113.88 C638.18,109.84 634.79,112.00 622.14,124.91 C615.19,132.01 608.52,138.31 607.32,138.91 C605.72,139.71 604.13,139.66 601.32,138.75 C597.89,137.63 597.09,136.66 593.47,129.18 L 589.43 120.87 L 587.63 124.68 C584.37,131.55 578.64,140.42 574.65,144.75 C568.19,151.78 563.79,150.04 556.46,137.52 L 553.78 132.95 L 550.64 138.19 C547.45,143.51 543.81,146.68 529.50,156.60 ZM 435.61 123.25 L 436.19 128.00 L 439.21 125.85 C443.85,122.54 448.78,117.32 450.64,113.73 C453.18,108.83 452.80,91.68 449.95,82.50 C447.47,74.52 442.89,64.98 440.65,63.12 C439.39,62.08 438.89,62.26 437.69,64.18 C432.88,71.92 432.09,94.39 435.61,123.25 ZM 517.33 149.41 C517.66,150.28 518.54,151.00 519.27,151.00 C523.20,151.00 540.65,136.52 543.60,130.80 C545.36,127.40 545.46,121.00 543.75,121.01 C539.94,121.03 524.03,123.92 522.13,124.93 C520.91,125.59 519.45,127.33 518.89,128.80 C517.63,132.09 516.49,147.23 517.33,149.41 ZM 584.90 63.61 C583.49,65.32 578.83,65.43 577.20,63.80 C575.19,61.79 575.82,58.16 578.48,56.42 C582.00,54.12 595.83,50.00 600.05,50.00 C605.83,50.00 607.81,53.68 604.15,57.61 C602.88,58.97 599.76,60.00 594.18,60.91 C589.71,61.64 585.54,62.85 584.90,63.61 ZM 279.74 170.31 C284.34,171.51 300.22,170.94 303.05,169.47 C306.82,167.52 306.95,165.56 303.25,166.38 C295.33,168.14 291.28,168.20 288.20,166.60 C285.05,164.98 282.00,160.51 282.00,157.55 C282.00,155.76 279.74,155.54 276.93,157.04 C273.34,158.96 275.50,169.20 279.74,170.31 ZM 489.00 163.83 C484.76,166.42 485.11,166.43 501.14,164.33 L 513.89 162.66 L 511.45 159.75 C510.10,158.15 508.72,155.08 508.37,152.93 L 507.75 149.02 L 504.09 152.76 C500.62,156.30 497.01,158.95 489.00,163.83 ZM 462.26 223.89 C461.95,232.75 462.02,240.00 462.41,240.00 C462.79,240.00 464.31,237.41 465.78,234.25 C467.78,229.92 468.45,226.89 468.47,222.00 C468.50,214.85 465.50,205.10 463.79,206.81 C463.26,207.34 462.57,215.03 462.26,223.89 ZM 316.15 240.32 C317.12,245.27 317.49,245.93 318.67,244.76 C321.22,242.21 321.45,233.83 319.17,226.35 C318.03,222.58 316.36,218.60 315.48,217.50 C313.97,215.64 313.90,216.14 314.43,225.00 C314.75,230.23 315.52,237.12 316.15,240.32 ZM 265.63 264.75 C266.30,267.24 268.00,267.83 268.00,265.57 C268.00,264.78 269.35,263.17 271.00,262.00 C273.21,260.42 274.00,259.06 274.00,256.81 C274.00,253.91 273.83,253.78 270.85,254.38 C265.29,255.49 263.89,258.27 265.63,264.75 ZM 292.20 156.25 C293.19,158.25 298.47,158.66 299.60,156.84 C300.02,156.16 298.96,154.46 297.05,152.75 L 293.77 149.82 L 292.55 152.16 C291.78,153.63 291.65,155.15 292.20,156.25 ZM 405.07 264.33 L 405.13 269.50 L 406.55 265.00 C408.17,259.85 408.41,256.00 407.11,256.00 C405.68,256.00 405.00,258.78 405.07,264.33 Z" fill="rgb(231,32,37)"/>
<path d="M 0.00 198.50 L 0.00 0.00 L 378.00 0.00 L 756.00 0.00 L 756.00 198.50 L 756.00 397.00 L 378.00 397.00 L 0.00 397.00 L 0.00 198.50 ZM 680.43 307.43 C682.41,305.45 682.40,304.58 680.40,302.92 C677.18,300.24 679.47,291.94 693.79,254.50 C703.58,228.90 708.36,213.72 707.51,211.02 C706.69,208.44 702.31,207.26 700.45,209.12 C699.69,209.88 692.47,230.08 684.40,254.00 C676.33,277.93 669.64,297.62 669.52,297.77 C669.40,297.91 666.19,297.39 662.40,296.59 C658.60,295.80 647.85,294.10 638.50,292.82 C621.89,290.55 619.74,290.50 545.50,290.59 C461.22,290.68 385.48,292.08 305.50,295.03 C236.01,297.58 204.15,297.54 142.46,294.81 L 91.43 292.55 L 95.69 284.65 C98.03,280.31 101.84,274.22 104.15,271.13 C112.63,259.77 132.50,240.76 150.54,226.73 L 156.58 222.03 L 174.54 219.56 C184.42,218.19 196.68,216.46 201.80,215.69 C209.61,214.53 211.01,214.53 210.57,215.67 C209.05,219.65 207.65,242.47 207.58,264.64 C207.51,288.02 207.63,289.92 209.40,291.89 C211.83,294.58 213.78,294.56 216.69,291.83 C219.29,289.38 219.65,286.79 217.66,284.80 C216.36,283.50 216.76,271.88 218.65,256.03 L 219.19 251.57 L 224.35 261.53 C230.93,274.23 236.35,282.58 238.88,283.94 C241.52,285.35 245.31,285.29 246.80,283.80 C249.69,280.91 247.79,274.95 240.25,263.19 C238.24,260.06 234.75,254.15 232.48,250.06 L 228.36 242.63 L 239.43 235.91 C249.96,229.53 250.50,229.04 250.50,225.87 C250.50,223.12 250.01,222.38 247.66,221.55 C245.24,220.70 243.87,221.06 238.48,223.93 C235.00,225.79 229.53,229.28 226.32,231.68 L 220.50 236.04 L 220.00 224.77 C219.73,218.57 219.54,213.39 219.58,213.25 C219.62,213.12 225.70,212.11 233.08,211.01 C240.46,209.91 251.90,208.11 258.50,207.00 C278.12,203.72 327.24,196.08 345.50,193.47 C354.85,192.14 374.88,189.22 390.00,186.99 C517.94,168.15 583.24,161.56 636.00,162.18 C663.62,162.50 666.00,162.13 666.00,157.50 C666.00,154.38 663.60,153.14 656.01,152.34 C649.62,151.68 648.52,150.17 653.46,148.85 C656.87,147.94 660.73,144.41 666.60,136.83 C671.02,131.13 672.03,127.43 669.80,125.20 C667.32,122.72 663.76,123.97 657.39,129.56 C650.11,135.95 650.57,136.36 649.51,122.50 C648.28,106.32 646.22,103.00 637.38,103.00 C632.33,103.00 631.12,103.45 625.63,107.39 C618.44,112.53 607.59,123.57 606.57,126.77 C605.48,130.22 604.38,129.44 603.01,124.25 C599.45,110.74 598.55,108.39 595.95,105.79 C592.48,102.32 587.23,101.99 584.45,105.05 C583.43,106.18 579.60,112.99 575.94,120.19 L 569.28 133.28 L 564.52 124.25 C561.90,119.28 558.11,113.03 556.09,110.36 C552.94,106.19 551.92,105.50 548.96,105.50 C546.40,105.50 545.26,106.05 544.57,107.61 C543.75,109.49 542.57,109.78 533.57,110.29 C522.62,110.91 518.76,111.96 515.15,115.32 C512.12,118.14 508.00,126.24 508.00,129.38 C508.00,132.83 507.02,135.00 505.45,135.00 C504.72,135.00 502.03,137.71 499.48,141.03 C493.31,149.05 481.22,158.00 476.56,158.00 C475.71,158.00 472.88,154.75 470.26,150.79 C464.38,141.89 459.94,138.59 455.00,139.45 C445.70,141.06 442.46,141.13 440.63,139.76 C438.88,138.44 439.18,138.05 445.22,133.74 C460.65,122.73 464.60,113.12 462.01,92.96 C459.15,70.77 449.44,52.91 440.30,53.02 C436.10,53.07 430.11,56.87 428.14,60.72 C422.03,72.70 421.32,102.95 426.49,131.17 C427.08,134.42 426.95,134.57 420.80,137.73 C417.33,139.51 410.15,143.45 404.82,146.49 C399.50,149.53 393.81,152.29 392.17,152.62 C388.11,153.43 386.49,150.69 384.99,140.50 C383.73,131.92 382.05,129.00 378.38,129.00 C374.90,129.00 372.19,132.65 369.87,140.46 C368.20,146.08 366.84,148.44 363.13,152.15 C359.01,156.27 357.84,156.88 352.66,157.52 C347.89,158.12 346.52,157.95 345.17,156.60 C343.62,155.05 343.73,154.51 346.76,148.72 C348.54,145.30 352.03,139.81 354.50,136.52 C359.76,129.53 360.30,125.90 356.45,123.38 L 353.90 121.71 L 345.20 130.66 C337.27,138.81 335.37,140.18 323.81,146.00 L 311.11 152.40 L 305.66 147.24 C302.66,144.40 297.28,140.64 293.69,138.87 C287.28,135.71 287.13,135.69 284.46,137.43 C282.97,138.41 281.27,140.48 280.69,142.02 C279.81,144.34 278.85,144.95 275.13,145.50 C265.05,147.01 261.10,157.78 266.58,168.78 C271.56,178.78 279.68,182.60 294.27,181.79 C308.42,181.02 317.39,174.61 316.81,165.69 L 316.57 161.88 L 325.78 157.50 L 335.00 153.12 L 335.00 156.31 C335.01,160.11 338.02,165.40 341.12,167.07 C344.35,168.80 360.22,167.44 364.88,165.04 C368.49,163.18 373.33,158.56 376.21,154.22 L 377.73 151.94 L 378.99 154.97 C380.89,159.57 386.46,164.00 390.34,164.00 C394.01,164.00 404.73,159.04 419.29,150.61 L 429.08 144.94 L 432.41 148.47 C436.24,152.54 440.38,153.06 447.94,150.42 C450.38,149.57 453.40,149.14 454.66,149.45 C455.91,149.76 459.44,153.13 462.51,156.93 C465.76,160.95 469.74,164.65 472.02,165.78 L 475.95 167.73 L 455.73 170.47 C422.58,174.95 328.16,188.67 304.35,192.46 C292.17,194.40 274.84,197.10 265.85,198.47 C256.86,199.83 236.00,203.00 219.50,205.51 C183.49,210.98 169.62,212.95 169.29,212.62 C169.02,212.36 175.49,207.84 212.00,182.81 C225.48,173.57 240.77,162.53 246.00,158.28 C259.37,147.40 298.33,108.31 300.01,104.11 C301.27,100.94 301.21,100.59 299.07,98.86 C295.68,96.11 290.06,96.53 275.96,100.56 C260.97,104.85 253.71,106.57 242.48,108.53 C237.82,109.34 230.23,110.65 225.63,111.45 C218.30,112.73 180.70,118.28 171.00,119.52 C161.64,120.72 148.10,122.19 134.50,123.47 C126.25,124.25 105.15,126.27 87.60,127.96 C61.77,130.44 55.09,130.80 52.47,129.85 C49.66,128.84 48.78,128.97 45.64,130.91 C39.16,134.92 28.75,147.43 20.59,161.03 C11.64,175.94 9.36,181.32 10.35,185.27 C11.11,188.31 14.78,189.78 17.62,188.19 C18.59,187.65 23.91,179.75 29.44,170.63 C34.97,161.51 41.96,150.94 44.97,147.14 L 50.45 140.24 L 58.97 139.57 C71.52,138.59 113.35,134.30 138.00,131.46 C177.28,126.93 190.05,124.87 236.50,115.56 C254.10,112.03 271.42,108.65 275.00,108.04 C278.58,107.43 282.81,106.67 284.41,106.35 C287.21,105.79 287.10,106.03 281.28,113.14 C273.32,122.86 252.11,143.40 239.00,154.07 C227.68,163.30 219.26,169.41 197.65,184.09 C185.04,192.66 166.18,205.80 156.79,212.55 C153.39,215.00 151.13,215.44 128.79,218.10 C99.03,221.64 60.53,225.00 49.70,225.00 C43.62,225.00 41.21,225.40 39.83,226.65 C37.45,228.81 37.50,231.66 39.93,232.96 C42.33,234.25 54.31,234.28 63.00,233.02 C66.57,232.51 80.53,230.93 94.00,229.51 C107.47,228.09 123.59,226.27 129.80,225.47 C136.02,224.66 141.31,224.00 141.56,224.00 C141.82,224.00 138.98,226.55 135.26,229.66 C118.41,243.77 104.63,258.23 90.95,276.14 C81.12,289.01 76.77,296.40 77.21,299.47 C77.81,303.68 84.02,305.26 103.00,306.05 C121.43,306.82 205.11,305.70 255.00,304.02 C350.58,300.80 378.88,299.99 428.50,299.06 C524.99,297.25 580.82,296.90 606.00,297.94 C631.78,299.00 637.84,299.91 659.00,305.89 C670.97,309.27 678.07,309.78 680.43,307.43 ZM 497.97 282.04 C511.05,275.29 545.64,250.24 553.83,241.59 C559.26,235.84 560.09,233.23 557.34,230.48 C553.78,226.92 549.16,229.44 533.50,243.50 C520.11,255.51 502.85,267.87 493.50,272.13 C482.50,277.15 469.92,271.67 465.89,260.12 C464.86,257.15 465.08,256.48 468.93,250.99 C478.05,237.99 481.11,226.21 478.57,213.99 C475.74,200.46 469.69,193.08 462.52,194.43 C456.27,195.60 453.51,201.12 451.93,215.58 C451.23,221.98 450.97,232.54 451.29,241.11 L 451.84 255.72 L 447.34 260.86 C443.33,265.45 442.41,266.00 438.83,266.00 C436.62,266.00 433.46,265.21 431.81,264.25 C429.12,262.68 423.50,254.56 418.74,245.39 C417.07,242.17 416.72,242.00 411.53,242.00 C406.80,242.00 405.58,242.43 402.37,245.25 C398.42,248.71 395.60,254.09 394.45,260.33 C394.06,262.44 392.68,265.23 391.38,266.53 C389.28,268.63 388.39,268.83 383.79,268.29 C376.47,267.42 374.57,265.20 373.18,255.88 C372.57,251.74 371.76,244.00 371.39,238.68 L 370.70 229.00 L 384.11 229.64 C398.72,230.34 400.53,229.79 399.83,224.81 C399.35,221.45 395.95,220.33 381.82,218.89 L 369.15 217.60 L 368.49 214.09 C367.10,206.66 363.08,202.20 358.96,203.51 C355.24,204.69 354.58,207.59 353.00,229.74 C351.78,246.86 350.56,253.17 347.46,258.58 C344.82,263.18 337.73,270.00 335.59,270.00 C334.82,270.00 332.44,267.86 330.32,265.25 C323.27,256.60 323.55,257.60 326.84,253.06 C332.65,245.04 333.39,232.69 328.87,219.12 C325.98,210.43 318.90,203.00 313.50,203.00 C308.94,203.00 305.56,206.23 303.95,212.14 C302.56,217.21 303.21,232.43 305.42,247.00 C307.08,257.92 306.88,258.43 299.42,262.04 C295.95,263.72 294.69,263.91 292.99,262.99 C291.33,262.10 291.00,261.26 291.49,259.07 C292.84,252.89 279.73,244.00 269.27,244.00 C262.44,244.00 260.69,244.96 257.42,250.54 C255.08,254.54 254.83,255.87 255.16,262.47 C255.61,271.43 257.88,275.32 262.93,275.82 C266.83,276.20 274.90,273.45 278.65,270.46 L 281.36 268.30 L 285.03 272.15 C290.04,277.41 295.20,277.52 303.05,272.53 C306.05,270.61 308.84,269.04 309.25,269.03 C309.66,269.01 310.00,270.33 310.00,271.95 C310.00,276.31 311.90,279.71 315.06,281.02 C318.61,282.49 321.32,281.64 322.99,278.52 L 324.30 276.07 L 327.02 278.36 C328.51,279.62 331.19,281.25 332.98,281.99 C335.81,283.16 336.63,283.12 339.39,281.63 C346.20,277.96 354.84,269.08 358.16,262.33 L 361.40 255.74 L 362.54 260.62 C364.85,270.53 368.32,275.66 374.22,277.90 C378.50,279.52 389.06,279.39 393.06,277.66 C396.48,276.19 396.75,276.23 399.56,278.53 C403.19,281.49 408.96,281.81 411.34,279.17 C412.25,278.17 414.03,274.80 415.30,271.69 L 417.60 266.04 L 420.92 269.56 C425.96,274.90 431.46,277.34 438.50,277.34 C445.49,277.35 449.36,275.63 453.83,270.54 L 456.95 266.99 L 458.96 270.92 C461.40,275.71 467.10,280.65 473.06,283.15 C479.35,285.78 491.78,285.23 497.97,282.04 ZM 584.90 63.61 C585.54,62.85 589.71,61.64 594.18,60.91 C599.76,60.00 602.88,58.97 604.15,57.61 C607.81,53.68 605.83,50.00 600.05,50.00 C595.83,50.00 582.00,54.12 578.48,56.42 C575.82,58.16 575.19,61.79 577.20,63.80 C578.83,65.43 583.49,65.32 584.90,63.61 ZM 279.74 170.31 C275.50,169.20 273.34,158.96 276.93,157.04 C279.74,155.54 282.00,155.76 282.00,157.55 C282.00,160.51 285.05,164.98 288.20,166.60 C291.28,168.20 295.33,168.14 303.25,166.38 C306.95,165.56 306.82,167.52 303.05,169.47 C300.22,170.94 284.34,171.51 279.74,170.31 ZM 489.00 163.83 C497.01,158.95 500.62,156.30 504.09,152.76 L 507.75 149.02 L 508.37 152.93 C508.72,155.08 510.10,158.15 511.45,159.75 L 513.89 162.66 L 501.14 164.33 C485.11,166.43 484.76,166.42 489.00,163.83 ZM 529.50 156.60 C543.81,146.68 547.45,143.51 550.64,138.19 L 553.78 132.95 L 556.46 137.52 C563.79,150.04 568.19,151.78 574.65,144.75 C578.64,140.42 584.37,131.55 587.63,124.68 L 589.43 120.87 L 593.47 129.18 C597.09,136.66 597.89,137.63 601.32,138.75 C604.13,139.66 605.72,139.71 607.32,138.91 C608.52,138.31 615.19,132.01 622.14,124.91 C634.79,112.00 638.18,109.84 639.46,113.88 C639.79,114.91 639.93,124.13 639.78,134.37 L 639.50 152.99 L 634.05 153.00 C631.05,153.00 620.25,153.64 610.05,154.43 C599.85,155.22 584.30,156.36 575.50,156.97 C558.25,158.16 530.67,160.68 525.00,161.58 C521.81,162.09 522.22,161.64 529.50,156.60 ZM 292.20 156.25 C291.65,155.15 291.78,153.63 292.55,152.16 L 293.77 149.82 L 297.05 152.75 C298.96,154.46 300.02,156.16 299.60,156.84 C298.47,158.66 293.19,158.25 292.20,156.25 ZM 517.33 149.41 C516.49,147.23 517.63,132.09 518.89,128.80 C519.45,127.33 520.91,125.59 522.13,124.93 C524.03,123.92 539.94,121.03 543.75,121.01 C545.46,121.00 545.36,127.40 543.60,130.80 C540.65,136.52 523.20,151.00 519.27,151.00 C518.54,151.00 517.66,150.28 517.33,149.41 ZM 435.61 123.25 C432.09,94.39 432.88,71.92 437.69,64.18 C438.89,62.26 439.39,62.08 440.65,63.12 C442.89,64.98 447.47,74.52 449.95,82.50 C452.80,91.68 453.18,108.83 450.64,113.73 C448.78,117.32 443.85,122.54 439.21,125.85 L 436.19 128.00 L 435.61 123.25 ZM 405.07 264.33 C405.00,258.78 405.68,256.00 407.11,256.00 C408.41,256.00 408.17,259.85 406.55,265.00 L 405.13 269.50 L 405.07 264.33 ZM 265.63 264.75 C263.89,258.27 265.29,255.49 270.85,254.38 C273.83,253.78 274.00,253.91 274.00,256.81 C274.00,259.06 273.21,260.42 271.00,262.00 C269.35,263.17 268.00,264.78 268.00,265.57 C268.00,267.83 266.30,267.24 265.63,264.75 ZM 316.15 240.32 C315.52,237.12 314.75,230.23 314.43,225.00 C313.90,216.14 313.97,215.64 315.48,217.50 C316.36,218.60 318.03,222.58 319.17,226.35 C321.45,233.83 321.22,242.21 318.67,244.76 C317.49,245.93 317.12,245.27 316.15,240.32 ZM 462.26 223.89 C462.57,215.03 463.26,207.34 463.79,206.81 C465.50,205.10 468.50,214.85 468.47,222.00 C468.45,226.89 467.78,229.92 465.78,234.25 C464.31,237.41 462.79,240.00 462.41,240.00 C462.02,240.00 461.95,232.75 462.26,223.89 Z" fill="rgb(254,254,254)"/>
</g>
</svg>