<svg xmlns="http://www.w3.org/2000/svg" width="499" height="272" viewBox="0 0 499 272">
<g>
<path d="M 64.86 247.55 C59.33,244.41 59.58,237.18 65.47,229.44 C71.38,221.70 92.66,206.34 115.24,193.50 L 125.80 187.50 L 126.46 181.42 C127.12,175.37 126.73,171.88 124.85,166.87 C123.93,164.44 123.58,164.31 120.18,165.10 C113.83,166.57 103.34,166.20 101.57,164.43 C99.53,162.38 99.59,161.68 102.02,159.49 C105.28,156.53 113.91,156.29 119.51,159.00 C124.11,161.23 124.16,161.23 128.29,159.37 C144.43,152.11 166.04,132.55 178.97,113.50 C189.12,98.55 194.01,86.02 193.98,75.07 C193.94,64.54 189.50,57.42 181.76,55.48 L 179.14 54.82 L 180.57 59.57 C182.48,65.92 182.39,79.32 180.39,86.06 C176.37,99.58 164.81,117.34 152.55,128.80 C129.03,150.80 101.72,157.70 97.92,142.59 C97.14,139.49 96.14,138.11 94.00,137.16 C89.47,135.15 87.48,128.83 89.02,121.36 C91.35,110.13 98.12,99.00 110.46,86.14 C129.29,66.52 153.48,53.05 169.94,53.01 L 176.37 53.00 L 173.53 50.03 C169.00,45.30 162.38,43.62 151.08,44.32 C138.70,45.09 131.79,46.99 119.50,53.01 C66.14,79.13 44.43,146.54 77.89,182.20 C81.14,185.67 86.08,189.85 88.88,191.50 C91.67,193.15 93.97,194.87 93.98,195.31 C94.03,197.25 84.93,190.94 78.39,184.50 C60.49,166.89 55.70,140.85 65.13,112.50 C73.93,86.04 94.20,63.42 120.29,50.94 C131.85,45.42 142.17,43.00 154.19,43.00 C165.44,43.00 169.60,44.29 175.00,49.43 C176.93,51.27 180.30,53.32 182.50,53.99 C196.61,58.30 203.51,70.26 201.04,86.16 C198.61,101.86 189.44,117.68 173.57,133.59 C160.17,147.02 143.20,158.17 130.25,162.04 C127.91,162.74 126.00,163.41 126.00,163.53 C126.00,163.65 126.85,165.72 127.89,168.12 C128.93,170.53 130.09,175.09 130.46,178.25 C130.84,181.41 131.32,184.00 131.53,184.00 C132.26,184.00 142.13,177.97 149.80,172.84 C161.45,165.06 167.12,160.12 183.50,143.49 C199.50,127.26 205.07,123.26 215.56,120.52 C223.33,118.49 227.00,119.23 227.00,122.83 C226.99,126.41 224.42,130.41 217.12,138.21 C210.66,145.12 209.06,149.12 212.46,149.82 C216.08,150.57 220.73,146.86 232.44,133.90 L 244.08 121.00 L 248.79 121.00 L 253.50 121.01 L 247.00 126.68 C233.38,138.55 217.61,156.76 218.22,159.90 C218.38,160.73 219.63,161.75 221.01,162.15 C223.32,162.84 223.29,162.88 220.50,162.70 C217.91,162.53 217.46,162.06 217.19,159.32 C217.02,157.52 217.78,154.39 218.96,152.07 C221.15,147.79 220.77,147.10 217.56,149.53 C215.06,151.42 210.59,151.42 209.01,149.52 C207.96,148.24 207.06,148.65 202.64,152.40 C190.93,162.35 183.32,165.33 180.94,160.89 C179.77,158.71 180.06,151.85 181.46,148.69 C181.90,147.70 178.76,150.30 174.48,154.49 C165.04,163.72 153.33,172.61 140.20,180.53 L 130.37 186.46 L 129.29 191.98 C123.92,219.54 97.24,246.42 73.14,248.55 C69.19,248.90 66.71,248.60 64.86,247.55 ZM 84.17 243.53 C96.83,237.33 109.34,224.32 117.35,209.02 C121.99,200.16 125.45,191.11 124.54,190.21 C123.86,189.52 96.85,205.84 86.87,212.98 C77.92,219.37 69.94,226.74 65.83,232.40 C62.54,236.93 62.09,242.33 64.75,245.28 C67.24,248.05 76.68,247.20 84.17,243.53 ZM 116.56 163.88 C119.00,163.27 121.00,162.41 121.00,161.99 C121.00,160.91 113.44,158.00 110.63,158.00 C106.47,158.00 102.00,160.08 102.00,162.01 C102.00,163.01 102.56,164.06 103.25,164.34 C105.50,165.25 112.03,165.02 116.56,163.88 ZM 192.84 158.61 C201.82,152.57 207.78,146.85 208.42,143.66 C209.39,138.80 213.64,134.00 216.96,134.00 C219.17,134.00 220.54,133.04 222.91,129.80 C224.61,127.49 226.00,124.51 226.00,123.17 C226.00,120.92 225.71,120.78 222.13,121.26 C216.72,121.98 207.96,127.86 198.11,137.39 C189.06,146.15 182.00,155.90 182.00,159.66 C182.00,163.19 186.70,162.74 192.84,158.61 ZM 125.54 145.13 C150.20,133.59 176.23,102.26 180.14,79.42 C181.39,72.11 180.57,63.06 178.06,56.61 L 176.94 53.72 L 169.72 54.27 C152.88,55.57 133.32,66.01 115.29,83.32 C99.97,98.03 91.22,112.42 90.25,124.50 C89.76,130.60 89.87,131.03 92.79,133.94 C96.72,137.87 97.63,137.79 98.44,133.45 C100.13,124.45 112.16,106.15 124.71,93.48 C141.86,76.15 157.15,69.06 163.55,75.45 C169.90,81.81 163.25,95.76 145.86,112.57 C131.21,126.73 116.75,135.77 105.07,138.07 C99.91,139.08 99.00,139.58 99.03,141.38 C99.15,149.53 112.19,151.38 125.54,145.13 ZM 114.21 132.73 C125.59,126.86 132.76,121.41 144.63,109.58 C159.06,95.21 165.52,84.35 163.47,77.90 C161.67,72.25 151.64,73.96 140.45,81.83 C126.01,91.98 106.12,116.05 101.11,129.44 C99.95,132.54 99.00,135.51 99.00,136.04 C99.00,138.38 106.36,136.77 114.21,132.73 ZM 258.11 210.51 C255.47,208.04 252.49,204.21 251.50,201.99 C249.18,196.86 247.68,197.24 239.26,205.09 C232.72,211.19 227.10,213.74 222.66,212.63 C218.63,211.62 217.00,209.28 217.00,204.50 C217.00,200.95 217.61,199.50 220.29,196.66 C225.26,191.38 233.38,190.50 234.84,195.07 C235.15,196.06 234.66,195.94 233.21,194.66 C228.47,190.45 219.00,197.29 219.00,204.91 C219.00,214.19 228.46,213.33 238.35,203.17 C241.32,200.12 242.04,198.72 241.52,197.06 C240.59,194.14 243.41,190.00 246.31,190.00 C248.10,190.00 249.25,188.63 251.83,183.38 C253.63,179.74 254.89,176.56 254.65,176.31 C253.84,175.51 246.58,179.72 244.00,182.48 C241.55,185.10 241.54,185.19 243.44,186.58 C245.33,187.97 245.33,188.00 243.19,188.00 C240.16,188.00 240.32,184.59 243.50,181.41 C246.88,178.02 256.17,173.77 257.43,175.03 C258.06,175.66 256.91,178.86 254.20,184.08 C250.25,191.68 249.17,195.00 250.63,195.00 C250.98,195.00 256.72,190.87 263.38,185.83 C277.23,175.35 284.21,171.73 289.65,172.19 C295.04,172.64 294.78,174.46 289.28,174.72 C283.00,175.01 275.02,179.12 261.74,188.90 L 250.97 196.83 L 255.26 203.10 C261.07,211.59 271.00,216.79 271.00,211.33 C271.00,210.54 271.45,210.16 272.00,210.50 C272.67,210.91 272.66,211.77 271.97,213.06 C271.21,214.48 269.86,215.00 266.92,215.00 C263.55,215.00 262.15,214.28 258.11,210.51 ZM 246.48 192.15 C245.73,191.40 244.00,193.20 244.00,194.75 C244.00,196.12 244.23,196.06 245.42,194.44 C246.20,193.38 246.68,192.34 246.48,192.15 ZM 263.36 207.50 C262.35,204.87 263.83,201.50 267.72,197.59 C273.21,192.06 276.92,190.86 280.38,193.49 C282.20,194.86 282.15,195.10 279.03,199.96 C277.12,202.94 276.04,205.66 276.40,206.61 C276.93,207.99 277.56,207.82 280.76,205.43 C283.83,203.13 284.15,203.04 282.51,204.91 C278.85,209.10 274.00,209.95 274.00,206.39 C274.00,204.42 272.61,204.66 270.50,207.00 C268.37,209.35 264.18,209.64 263.36,207.50 ZM 268.91 207.05 C271.27,205.79 279.36,195.02 278.55,194.22 C277.47,193.14 270.93,197.26 267.90,200.94 C263.60,206.15 264.17,209.59 268.91,207.05 ZM 283.47 206.75 C283.86,205.51 284.16,203.72 284.15,202.76 C284.14,201.81 284.93,200.46 285.90,199.76 C286.88,199.07 288.93,196.48 290.46,194.00 C294.86,186.88 300.00,181.97 300.00,184.88 C300.00,185.37 297.76,188.63 295.02,192.13 C292.28,195.63 290.03,198.85 290.02,199.28 C290.01,199.70 292.36,198.47 295.24,196.53 C303.09,191.24 305.41,192.15 300.50,198.59 C297.05,203.11 295.62,207.00 297.42,207.00 C301.11,207.00 310.92,196.14 308.08,195.19 C306.19,194.56 306.92,193.00 309.11,193.00 C310.26,193.00 312.10,191.87 313.19,190.49 C315.37,187.71 317.42,188.09 316.47,191.08 C315.93,192.78 316.42,193.01 320.68,193.12 L 325.50 193.24 L 319.50 194.20 C316.21,194.73 312.91,195.66 312.18,196.26 C310.45,197.70 307.00,204.49 307.00,206.46 C307.00,209.28 312.52,208.25 317.42,204.51 C319.94,202.59 322.00,201.24 322.00,201.51 C322.00,201.78 323.58,200.26 325.51,198.12 C330.15,192.98 334.24,191.25 337.55,193.03 C340.63,194.68 340.62,195.63 337.44,200.31 C336.03,202.38 335.01,205.08 335.19,206.29 C335.48,208.34 335.85,208.18 340.26,204.11 C342.88,201.70 346.56,197.20 348.43,194.11 C352.35,187.66 356.39,183.51 357.87,184.42 C358.46,184.78 356.15,188.92 352.44,194.15 C343.59,206.67 343.91,212.59 353.00,204.38 C355.20,202.39 357.00,201.24 357.00,201.81 C357.00,203.54 349.70,209.00 347.39,209.00 C344.58,209.00 342.67,206.61 343.47,204.10 C343.93,202.64 343.17,203.03 340.65,205.55 C336.75,209.45 334.56,209.88 332.82,207.08 C331.63,205.18 331.58,205.18 329.17,207.08 C324.77,210.54 320.06,208.53 321.56,203.82 C322.21,201.77 321.92,201.86 318.62,204.76 C314.70,208.20 311.62,209.37 307.85,208.83 C305.89,208.56 305.52,207.96 305.65,205.22 L 305.80 201.95 L 301.83 205.53 C297.67,209.29 296.34,209.50 294.57,206.67 C293.75,205.35 294.02,203.99 295.76,200.81 C297.00,198.54 297.80,196.47 297.54,196.21 C297.28,195.95 294.09,198.72 290.44,202.37 C286.80,206.02 283.58,209.00 283.29,209.00 C283.00,209.00 283.08,207.99 283.47,206.75 ZM 329.65 204.75 C331.32,202.96 333.94,199.81 335.46,197.75 C338.17,194.10 338.18,194.00 336.08,194.00 C333.00,194.00 324.00,202.67 324.00,205.64 C324.00,208.91 326.06,208.59 329.65,204.75 ZM 239.75 162.41 C238.33,161.00 239.01,156.33 241.27,151.86 L 243.54 147.37 L 236.52 153.28 C232.66,156.53 228.15,159.83 226.50,160.61 C224.80,161.41 224.32,161.48 225.40,160.76 C233.19,155.58 243.74,145.89 253.79,134.68 L 265.62 121.50 L 271.06 121.24 L 276.50 120.99 L 273.50 123.13 C268.95,126.37 247.34,148.90 243.97,153.92 C235.79,166.11 245.81,164.30 260.36,150.97 C263.58,148.02 283.37,126.01 304.35,102.05 C325.32,78.10 346.00,54.56 350.30,49.75 L 358.12 41.00 L 363.11 41.00 L 368.10 41.00 L 362.30 45.85 C354.82,52.10 346.20,61.22 321.02,89.50 C309.75,102.15 295.16,118.35 288.59,125.50 C271.84,143.71 270.57,145.28 278.33,138.18 C296.95,121.12 305.78,116.68 309.57,122.46 C310.94,124.56 311.00,125.48 309.94,128.69 C308.75,132.28 306.69,134.47 288.25,151.62 C281.88,157.55 280.85,161.35 285.50,161.78 C290.22,162.22 299.95,155.11 314.00,140.94 C325.03,129.82 327.50,127.86 335.00,124.24 C348.85,117.54 357.08,117.78 355.34,124.82 C354.68,127.48 354.70,127.48 357.43,124.25 C359.88,121.35 360.74,121.00 365.34,121.01 L 370.50 121.02 L 367.00 123.65 C362.74,126.84 344.32,145.66 338.92,152.34 C334.39,157.94 333.71,162.00 337.30,162.00 C342.77,162.00 353.49,152.71 373.33,130.75 L 382.14 121.00 L 387.32 121.03 L 392.50 121.06 L 389.50 123.19 C384.98,126.39 363.76,147.88 360.16,152.90 C358.42,155.32 357.00,158.36 357.00,159.65 C357.00,164.86 365.21,161.17 376.43,150.92 C382.86,145.04 407.51,118.04 414.92,108.76 C418.38,104.42 420.14,103.01 422.11,103.01 C424.45,103.00 423.83,103.88 416.11,111.50 C408.41,119.10 407.82,119.94 410.50,119.43 C416.87,118.21 421.27,122.42 419.49,128.04 C418.41,131.43 412.36,137.62 402.27,145.65 C397.20,149.69 392.32,154.10 391.44,155.45 C389.19,158.89 389.96,161.36 393.51,162.12 L 396.50 162.76 L 393.32 162.88 C390.28,162.99 387.00,160.93 387.00,158.90 C387.00,155.40 391.50,149.26 401.98,138.48 C410.97,129.22 414.00,125.47 414.00,123.55 C414.00,121.28 413.60,121.00 410.34,121.00 C406.34,121.00 407.85,119.66 384.91,143.72 C372.96,156.27 363.28,163.26 358.52,162.80 C356.09,162.56 355.44,161.98 355.19,159.85 C355.02,158.40 355.56,155.58 356.39,153.60 C357.22,151.62 357.65,150.00 357.35,150.00 C357.05,150.00 354.71,151.85 352.15,154.10 C345.54,159.93 339.59,163.20 336.29,162.82 C332.32,162.37 332.05,157.82 335.56,150.88 L 338.23 145.60 L 332.87 150.45 C325.32,157.25 317.92,161.98 313.75,162.65 C310.76,163.14 310.00,162.87 308.98,160.97 C307.77,158.70 308.07,152.30 309.57,148.50 C310.08,147.21 308.70,148.01 305.67,150.77 C298.90,156.95 289.13,163.00 285.92,163.00 C282.44,163.00 280.00,160.64 280.00,157.27 C280.00,152.73 284.53,146.71 295.92,136.12 C304.11,128.51 307.00,125.19 307.00,123.41 C307.00,121.55 306.47,121.00 304.66,121.00 C299.86,121.00 289.50,129.14 273.32,145.62 L 257.14 162.11 L 252.32 162.05 C249.67,162.03 245.92,162.26 244.00,162.58 C242.07,162.90 240.16,162.82 239.75,162.41 ZM 320.96 158.25 C327.74,154.29 345.49,137.57 350.84,130.10 C359.33,118.26 350.05,117.95 334.93,129.56 C327.00,135.65 314.59,149.15 312.00,154.50 C307.97,162.83 310.97,164.09 320.96,158.25 ZM 403.33 157.44 C407.07,154.92 413.58,149.64 417.80,145.69 C422.02,141.73 424.13,140.07 422.48,142.00 C416.23,149.33 400.46,162.00 397.59,162.00 C397.00,162.00 399.58,159.95 403.33,157.44 ZM 403.00 97.63 C403.00,95.30 411.71,88.00 414.48,88.00 C415.86,88.00 417.00,88.25 417.00,88.57 C417.00,90.29 414.40,93.42 410.80,96.03 C406.44,99.19 403.00,99.89 403.00,97.63 Z" fill="rgba(0,0,0,1)"/>
</g>
</svg>